<svg width="25" height="24" viewBox="0 0 25 24" fill="none" xmlns="http://www.w3.org/2000/svg">
<path fill-rule="evenodd" clip-rule="evenodd" d="M21.0303 4.53033C21.3232 4.23744 21.3232 3.76256 21.0303 3.46967C20.7374 3.17678 20.2626 3.17678 19.9697 3.46967L3.96967 19.4697C3.67678 19.7626 3.67678 20.2374 3.96967 20.5303C4.26256 20.8232 4.73744 20.8232 5.03033 20.5303L7.87723 17.6834C9.24353 18.3266 10.8172 18.75 12.5 18.75C15.184 18.75 17.5903 17.6729 19.3206 16.345C20.1874 15.6797 20.9032 14.9376 21.4089 14.2089C21.9006 13.5003 22.25 12.7227 22.25 12C22.25 11.2773 21.9006 10.4997 21.4089 9.79115C20.9032 9.06244 20.1874 8.32028 19.3206 7.65503C19.0585 7.45385 18.7808 7.25842 18.489 7.07163L21.0303 4.53033ZM17.3995 8.16113L15.6287 9.93196C16.0213 10.5248 16.25 11.2357 16.25 12C16.25 14.0711 14.5711 15.75 12.5 15.75C11.7357 15.75 11.0248 15.5213 10.432 15.1287L9.01524 16.5454C10.0808 16.9795 11.2621 17.25 12.5 17.25C14.7865 17.25 16.8802 16.3271 18.4073 15.155C19.1692 14.5703 19.7714 13.9374 20.1766 13.3536C20.5957 12.7497 20.75 12.2773 20.75 12C20.75 11.7227 20.5957 11.2503 20.1766 10.6464C19.7714 10.0626 19.1692 9.42972 18.4073 8.84497C18.0941 8.60461 17.7571 8.37472 17.3995 8.16113ZM11.5299 14.0307C11.8237 14.1713 12.1526 14.25 12.5 14.25C13.7426 14.25 14.75 13.2426 14.75 12C14.75 11.6526 14.6713 11.3237 14.5307 11.0299L11.5299 14.0307Z" fill="#464F54"/>
<path d="M12.5 5.25C13.5323 5.25 14.5236 5.40934 15.4511 5.68101C15.6296 5.73328 15.6827 5.95662 15.5513 6.0881L14.7267 6.91265C14.6648 6.97451 14.5752 6.99928 14.49 6.97967C13.8506 6.83257 13.1839 6.75 12.5 6.75C10.2135 6.75 8.11978 7.67292 6.59267 8.84497C5.83078 9.42972 5.22857 10.0626 4.82343 10.6464C4.40431 11.2503 4.25 11.7227 4.25 12C4.25 12.2773 4.40431 12.7497 4.82343 13.3536C5.17725 13.8635 5.68138 14.4107 6.31091 14.9307C6.42677 15.0264 6.43781 15.2015 6.33156 15.3078L5.62265 16.0167C5.53234 16.107 5.38823 16.1149 5.29037 16.0329C4.59739 15.4517 4.01902 14.8255 3.5911 14.2089C3.09937 13.5003 2.75 12.7227 2.75 12C2.75 11.2773 3.09937 10.4997 3.5911 9.79115C4.09681 9.06244 4.81262 8.32028 5.67941 7.65503C7.40965 6.32708 9.81598 5.25 12.5 5.25Z" fill="#464F54"/>
<path d="M12.5 8.25C12.6185 8.25 12.7357 8.25549 12.8513 8.26624C13.0482 8.28453 13.1194 8.51991 12.9796 8.6597L11.7674 9.87196C11.1141 10.0968 10.5968 10.6141 10.372 11.2674L9.1597 12.4796C9.01991 12.6194 8.78453 12.5482 8.76624 12.3513C8.75549 12.2357 8.75 12.1185 8.75 12C8.75 9.92893 10.4289 8.25 12.5 8.25Z" fill="#464F54"/>
</svg>
